P3
7 24
255
  255 255 255  255 255 255  255 255 255  255 255 255  255 255 255  255 255 255  255 255 255
  255 255 255   31  31  31   31  31  31   31  31  31   31  31  31   31  31  31  255 255 255
  255 255 255  255 255 255  255 255 255   31  31  31  255 255 255   31  31  31  255 255 255
  255 255 255  255 255 255  255 255 255   31  31  31  255 255 255   31  31  31  255 255 255
  255 255 255  255 255 255  255 255 255  255 255 255  255 255 255   31  31  31  255 255 255
  255 255 255  255 255 255  255 255 255  255 255 255  255 255 255  255 255 255  255 255 255
  255 255 255  255 255 255  255 255 255  255 255 255  255 255 255  255 255 255  255 255 255
  255 255 255   64   0 255   64   0 255   64   0 255   64   0 255   64   0 255  255 255 255
  255 255 255   64   0 255  255 255 255   64   0 255  255 255 255   64   0 255  255 255 255
  255 255 255   64   0 255  255 255 255   64   0 255  255 255 255   64   0 255  255 255 255
  255 255 255   64   0 255  255 255 255  255 255 255  255 255 255   64   0 255  255 255 255
  255 255 255  255 255 255  255 255 255  255 255 255  255 255 255  255 255 255  255 255 255
  255 255 255  255 255 255  255 255 255  255 255 255  255 255 255  255 255 255  255 255 255
  255 255 255  255  64 128  255  64 128  255  64 128  255  64 128  255  64 128  255 255 255
  255 255 255  255  64 128  255 255 255  255  64 128  255 255 255  255  64 128  255 255 255
  255 255 255  255  64 128  255 255 255  255  64 128  255 255 255  255  64 128  255 255 255
  255 255 255  255  64 128  255 255 255  255 255 255  255 255 255  255  64 128  255 255 255
  255 255 255  255 255 255  255 255 255  255 255 255  255 255 255  255 255 255  255 255 255
  255 255 255  255 255 255  255 255 255  255 255 255  255 255 255  255 255 255  255 255 255
  255 255 255  128 255  64  128 255  64  128 255  64  128 255  64  128 255  64  255 255 255
  255 255 255  255 255 255  255 255 255  128 255  64  255 255 255  128 255  64  255 255 255
  255 255 255  255 255 255  255 255 255  128 255  64  255 255 255  128 255  64  255 255 255
  255 255 255  255 255 255  255 255 255  128 255  64  128 255  64  128 255  64  255 255 255
  255 255 255  255 255 255  255 255 255  255 255 255  255 255 255  255 255 255  255 255 255
